<?xml version="1.0" standalone="no"?>
<!DOCTYPE svg PUBLIC "-//W3C//DTD SVG 20010904//EN"
 "http://www.w3.org/TR/2001/REC-SVG-20010904/DTD/svg10.dtd">
<svg version="1.0" xmlns="http://www.w3.org/2000/svg"
 width="794.000000pt" height="596.000000pt" viewBox="0 0 794.000000 596.000000"
 preserveAspectRatio="xMidYMid meet">
<metadata>
Created by potrace 1.16, written by Peter Selinger 2001-2019
</metadata>
<g transform="translate(0.000000,596.000000) scale(0.100000,-0.100000)"
fill="#000000" stroke="none">
<path d="M5730 5549 c-13 -6 -54 -39 -91 -74 -37 -36 -73 -65 -81 -65 -7 0
-33 25 -58 54 -53 63 -73 77 -118 83 -36 5 -33 7 -130 -106 l-29 -35 -34 40
c-82 95 -94 104 -142 104 -44 0 -49 -3 -104 -65 -32 -36 -62 -65 -68 -65 -5 0
-38 27 -72 60 -56 54 -67 60 -105 60 -39 0 -47 -5 -105 -67 l-64 -68 -30 35
c-96 110 -97 110 -143 110 -42 0 -48 -4 -104 -65 -33 -36 -64 -65 -69 -65 -6
0 -33 27 -61 59 -83 95 -136 93 -217 -10 -25 -32 -50 -59 -55 -59 -11 0 -29
18 -75 75 -39 47 -90 71 -130 61 -14 -4 -48 -35 -77 -71 -28 -36 -56 -65 -60
-65 -5 0 -37 29 -71 65 -54 56 -67 65 -97 65 -46 -1 -70 -15 -120 -72 -23 -27
-46 -48 -51 -48 -5 0 -38 29 -73 65 -88 90 -129 87 -214 -14 -24 -28 -49 -51
-56 -51 -7 0 -33 21 -58 48 -61 64 -72 73 -107 78 -41 7 -67 -9 -129 -77 -30
-33 -57 -59 -60 -59 -4 1 -25 25 -47 55 -46 61 -66 76 -112 82 -30 4 -40 -2
-101 -61 -38 -36 -74 -66 -80 -66 -6 0 -30 25 -52 55 -47 64 -65 75 -119 75
-35 0 -48 -7 -102 -57 l-62 -58 -16 25 c-44 67 -72 90 -111 90 -45 0 -66 -17
-79 -68 -17 -61 2 -108 70 -174 32 -31 59 -60 59 -65 0 -5 -34 -43 -75 -84
-41 -42 -75 -83 -75 -92 0 -18 52 -73 115 -124 l40 -32 -77 -74 c-96 -91 -100
-112 -35 -173 23 -23 57 -51 75 -63 17 -12 32 -31 32 -41 0 -11 -25 -38 -60
-65 -111 -85 -111 -109 -4 -211 35 -34 64 -68 64 -75 0 -8 -33 -45 -72 -82
l-73 -68 24 -43 c12 -25 45 -68 71 -98 l48 -53 -74 -71 c-41 -39 -74 -77 -74
-84 0 -7 34 -45 75 -85 41 -39 75 -77 75 -84 0 -7 -34 -46 -75 -85 -41 -40
-75 -80 -75 -90 0 -18 67 -90 132 -143 17 -14 25 -28 22 -38 -3 -8 -35 -38
-70 -65 -36 -28 -69 -62 -74 -76 -14 -37 10 -76 80 -131 78 -60 84 -79 35
-118 -101 -81 -118 -101 -111 -128 3 -14 35 -54 71 -89 36 -34 65 -67 65 -72
0 -5 -31 -40 -70 -77 -39 -37 -70 -75 -70 -86 0 -25 38 -76 101 -134 61 -56
59 -64 -31 -135 -33 -26 -63 -58 -66 -70 -8 -30 21 -71 86 -120 31 -23 50 -46
50 -58 0 -12 -27 -45 -64 -81 -35 -33 -69 -70 -75 -82 -17 -33 6 -69 78 -125
40 -31 59 -53 55 -62 -3 -8 -30 -34 -60 -57 -67 -52 -90 -89 -73 -122 6 -12
41 -52 77 -89 64 -66 65 -67 49 -92 -9 -13 -37 -42 -63 -63 -25 -21 -52 -51
-60 -66 -14 -26 -13 -31 3 -57 10 -16 39 -45 66 -65 26 -20 47 -43 47 -51 0
-9 -12 -38 -27 -64 -25 -45 -26 -50 -13 -76 25 -46 104 -68 153 -43 12 7 54
43 93 80 40 38 77 69 83 69 5 0 23 -17 38 -37 15 -20 44 -54 64 -75 55 -57 76
-52 159 32 38 39 74 70 81 70 7 0 44 -31 81 -70 91 -93 101 -93 193 5 38 41
75 75 81 75 6 0 30 -27 55 -61 89 -123 122 -125 205 -13 30 41 60 74 65 74 6
0 43 -34 82 -75 96 -101 124 -99 207 11 22 30 48 54 56 54 9 0 46 -31 83 -70
89 -95 103 -94 193 2 l67 72 69 -66 c69 -67 108 -87 135 -71 28 16 88 96 83
110 -3 8 -2 12 3 9 5 -3 14 1 21 9 21 25 37 17 92 -46 59 -68 99 -93 133 -85
13 3 49 35 80 71 32 36 62 65 67 65 6 0 40 -31 77 -70 87 -92 98 -92 196 0 41
39 78 70 84 70 5 0 22 -17 37 -37 49 -67 87 -103 109 -103 25 0 86 42 130 90
55 59 58 58 133 -20 76 -78 94 -84 142 -44 33 29 92 109 85 116 -3 3 5 4 17 3
14 -1 42 -27 78 -71 98 -120 136 -124 197 -19 55 93 53 93 168 1 39 -31 79
-56 91 -56 36 0 54 31 54 96 l0 59 -81 76 c-91 84 -93 96 -27 137 42 26 84 71
91 97 9 30 -14 63 -84 119 -34 28 -63 56 -63 61 0 6 14 19 32 30 18 11 55 37
83 58 73 55 69 73 -35 172 -46 44 -82 86 -79 93 3 7 31 30 63 52 117 80 120
114 15 213 -41 40 -75 78 -75 85 0 6 26 32 58 57 71 55 96 94 83 127 -5 13
-35 48 -68 77 -86 79 -86 76 -10 145 85 78 91 100 41 156 -21 23 -50 48 -65
56 -16 8 -33 23 -39 35 -10 18 -3 28 59 87 80 77 94 110 63 150 -11 15 -27 26
-35 26 -9 -1 -14 4 -11 10 2 6 -12 21 -31 33 -63 41 -62 54 4 115 113 105 114
127 16 214 -36 32 -65 63 -65 70 0 7 27 36 59 64 68 60 89 99 73 134 -6 13
-38 47 -71 77 -34 29 -61 61 -61 70 0 10 19 32 43 50 124 95 135 128 66 188
-124 108 -115 96 -97 122 8 13 28 36 43 52 94 93 97 126 15 208 -33 33 -60 63
-60 67 0 4 29 35 65 69 86 82 86 93 -5 187 -38 40 -70 77 -70 84 0 6 33 37 73
69 62 51 72 64 75 95 3 38 -8 52 -107 141 -23 21 -40 44 -38 50 2 7 28 32 58
56 105 85 107 123 13 189 -31 21 -54 45 -54 55 0 10 16 41 35 70 60 88 41 127
-61 126 -32 0 -70 -5 -84 -10z m-3706 -78 c19 -28 47 -58 61 -67 35 -23 73 -6
130 62 59 68 78 74 117 37 16 -15 39 -43 50 -61 18 -29 63 -62 85 -62 4 0 39
34 79 75 39 41 78 75 86 75 9 0 39 -25 67 -55 100 -105 111 -106 205 -9 34 35
68 64 76 64 7 0 43 -31 80 -70 37 -38 73 -70 81 -70 25 1 56 24 104 78 26 29
55 52 66 52 11 0 43 -25 72 -56 47 -50 93 -84 114 -84 4 0 40 35 80 77 67 72
73 76 95 65 13 -7 41 -35 63 -62 22 -27 53 -55 69 -64 26 -13 33 -13 58 0 15
8 28 18 28 22 0 14 96 112 109 112 7 0 43 -31 80 -70 38 -39 76 -70 87 -70 10
0 47 30 84 70 43 46 73 70 87 70 15 0 39 -20 74 -62 87 -105 103 -106 198 -5
30 32 63 57 74 57 11 0 44 -26 76 -59 88 -91 105 -90 191 8 28 32 59 61 70 64
21 5 53 -21 106 -87 66 -83 92 -81 165 11 27 35 58 67 67 70 11 5 34 -12 76
-59 99 -107 114 -108 206 -13 30 31 67 63 82 71 31 16 114 19 123 4 4 -6 -9
-34 -29 -63 -19 -29 -38 -63 -41 -77 -7 -28 9 -48 84 -108 22 -18 41 -39 41
-46 0 -7 -31 -41 -70 -75 -92 -82 -92 -91 5 -183 41 -39 75 -80 75 -89 0 -10
-16 -31 -36 -46 -85 -65 -114 -96 -114 -120 0 -17 21 -46 65 -92 40 -41 65
-76 65 -89 0 -14 -22 -43 -60 -79 -77 -72 -79 -93 -12 -154 44 -40 71 -74 72
-91 0 -4 -27 -37 -60 -74 -59 -65 -77 -100 -67 -128 3 -8 34 -38 69 -66 35
-29 67 -61 73 -72 10 -22 13 -18 -104 -116 -33 -28 -51 -51 -51 -65 0 -14 25
-45 70 -87 39 -37 70 -74 70 -84 0 -11 -29 -50 -65 -87 -41 -42 -65 -75 -65
-90 0 -14 24 -45 71 -90 83 -79 83 -78 -11 -160 -92 -80 -91 -105 10 -185 81
-63 80 -77 -10 -163 -93 -90 -93 -103 6 -181 42 -33 64 -58 64 -71 0 -13 -25
-44 -65 -81 -86 -81 -86 -92 5 -176 39 -36 70 -73 70 -83 0 -9 -31 -45 -70
-79 -92 -81 -92 -91 3 -187 39 -40 74 -75 75 -78 12 -13 -18 -51 -69 -85 -32
-23 -67 -52 -76 -66 -16 -24 -15 -28 2 -60 10 -19 21 -34 25 -34 16 0 132
-119 128 -131 -2 -8 -37 -36 -78 -64 -40 -27 -78 -58 -84 -67 -15 -25 6 -56
75 -108 80 -61 85 -84 28 -129 -134 -108 -133 -115 20 -248 28 -24 34 -38 39
-81 7 -76 -11 -77 -107 -4 -44 33 -89 63 -100 67 -31 10 -59 -11 -92 -70 -34
-61 -51 -78 -74 -73 -8 2 -44 37 -78 78 -50 60 -69 76 -94 78 -28 3 -37 -4
-88 -67 -33 -42 -63 -71 -74 -71 -10 0 -44 29 -76 65 -77 89 -97 89 -191 0
-43 -41 -76 -64 -88 -62 -11 1 -40 31 -66 67 -65 92 -81 92 -175 1 -40 -39
-82 -71 -92 -71 -12 0 -45 28 -82 70 -44 49 -70 70 -86 70 -16 0 -42 -21 -86
-70 -36 -41 -70 -70 -81 -70 -11 0 -50 33 -90 75 -97 103 -95 103 -206 -34
-18 -23 -41 -41 -50 -41 -9 0 -44 29 -78 65 -82 88 -100 88 -181 0 -33 -36
-68 -65 -78 -65 -11 0 -48 32 -83 70 -86 92 -102 93 -173 8 -28 -35 -62 -67
-76 -73 -22 -8 -31 -2 -96 68 -48 51 -80 77 -94 77 -25 0 -60 -34 -104 -102
-32 -49 -52 -63 -74 -51 -7 5 -36 38 -64 75 -76 100 -88 100 -177 3 -84 -92
-98 -94 -158 -15 -79 104 -106 105 -197 10 -39 -40 -76 -70 -87 -70 -13 0 -38
24 -71 69 -79 106 -87 106 -196 1 -71 -68 -89 -80 -117 -80 -19 0 -43 6 -53
14 -18 13 -18 15 10 68 36 70 31 92 -40 146 -31 23 -59 50 -62 59 -5 12 12 34
59 77 109 100 109 111 2 211 -35 34 -64 68 -64 77 0 9 30 42 66 74 36 32 70
66 75 76 14 26 -3 51 -58 89 -55 38 -83 65 -83 80 0 6 34 46 76 89 95 98 96
113 9 182 -84 68 -89 82 -40 125 133 117 134 121 35 217 -39 38 -70 77 -70 87
0 10 27 42 61 71 98 86 98 101 -6 199 -30 28 -55 60 -55 70 0 12 27 38 70 70
103 75 104 103 3 183 -74 58 -89 81 -73 110 7 11 40 44 74 72 80 66 84 91 26
143 -124 107 -116 97 -102 122 7 13 35 42 61 64 64 52 84 86 72 118 -5 13 -40
52 -78 86 l-68 62 78 73 c42 40 77 76 77 80 0 4 -27 39 -61 78 -86 100 -90
110 -49 145 18 15 41 34 51 40 28 21 61 81 55 101 -4 10 -38 49 -76 86 -39 37
-70 74 -70 82 0 9 14 28 32 42 145 122 146 129 45 211 -103 84 -102 81 -14
165 41 39 77 78 80 87 8 25 -16 56 -81 104 -34 25 -62 52 -62 61 0 9 34 49 76
89 90 86 90 94 9 171 -62 57 -79 94 -70 144 12 65 50 81 82 33 10 -14 32 -41
50 -60 38 -40 50 -38 129 32 89 78 99 78 158 -4z"/>
<path d="M2034 5075 c-7 -18 4 -2847 12 -2854 2 -2 34 10 71 26 59 27 83 32
183 37 63 3 132 11 152 17 54 17 91 63 133 162 40 93 78 137 144 165 20 8 132
48 249 88 118 41 237 86 265 101 53 28 67 46 170 213 31 51 45 65 87 82 65 27
105 86 177 264 60 147 103 327 103 427 0 63 -31 182 -64 245 -9 17 -12 32 -7
32 5 0 11 10 15 23 5 17 8 19 15 8 6 -9 10 -10 14 -2 3 7 4 7 2 -1 -1 -7 -8
-12 -15 -10 -8 2 -10 -3 -6 -13 3 -9 6 -19 6 -21 0 -3 4 -2 10 1 5 3 7 0 4 -8
-6 -18 22 -47 44 -46 14 0 14 2 2 6 -8 3 -18 11 -22 17 -11 17 -9 56 3 56 5 0
7 5 3 11 -4 8 0 8 15 0 11 -7 21 -17 21 -24 0 -9 18 -13 59 -12 32 0 54 3 49
6 -6 4 -2 12 11 18 12 7 19 16 16 22 -7 10 8 13 18 2 4 -3 -1 -12 -11 -19 -9
-7 -14 -15 -11 -19 12 -11 142 122 134 135 -5 8 -4 11 2 7 10 -7 33 17 93 95
14 18 24 36 22 41 -1 5 3 5 9 2 6 -4 25 3 42 16 96 71 306 176 572 285 299
123 284 114 403 244 58 63 119 130 136 148 l30 32 -390 0 -390 0 -93 -105
c-51 -58 -112 -118 -135 -134 -22 -15 -131 -74 -241 -131 -328 -169 -487 -251
-541 -281 -28 -15 -54 -25 -58 -22 -11 11 -6 96 8 148 15 56 68 165 131 270
23 38 59 102 78 141 20 40 48 81 63 93 l27 21 -504 0 c-277 0 -685 3 -906 7
-380 6 -403 5 -409 -12z"/>
<path d="M5209 4556 c-256 -131 -323 -171 -314 -187 4 -5 2 -8 -3 -7 -10 3
-72 -69 -72 -84 0 -5 -15 -33 -34 -62 -23 -37 -31 -58 -25 -67 8 -12 10 -12
18 0 5 8 7 20 4 27 -2 6 0 15 5 18 5 3 7 -7 5 -22 -2 -15 -5 -32 -5 -39 -1 -7
-13 -11 -30 -9 -20 2 -33 -2 -41 -15 -12 -20 -37 -26 -37 -9 0 6 6 10 14 10 7
0 19 6 26 14 6 8 19 12 28 9 13 -5 14 -3 6 6 -9 10 -22 6 -60 -17 -27 -17 -69
-38 -93 -48 -35 -14 -40 -19 -27 -26 9 -5 22 -7 29 -4 7 2 3 5 -8 5 -17 1 -17
3 -5 11 19 12 43 13 36 1 -3 -5 12 -8 33 -7 22 0 37 5 34 9 -3 5 -16 7 -29 4
-14 -2 -27 -1 -29 4 -9 13 33 21 54 9 23 -12 82 -10 75 2 -3 4 40 8 95 8 61 0
101 -4 101 -10 0 -6 33 -10 79 -10 54 0 81 -4 85 -12 5 -10 7 -10 12 0 3 6 17
12 31 12 13 0 32 7 40 16 14 13 14 17 2 26 -11 8 -10 9 4 4 10 -3 32 -6 48 -6
16 0 29 -4 29 -9 0 -4 -10 -6 -22 -4 -26 5 -67 -21 -55 -33 4 -5 11 -4 15 2 9
14 51 24 57 14 3 -5 -5 -10 -17 -12 -12 -2 -23 -9 -26 -16 -4 -14 91 35 96 50
2 4 8 8 12 8 5 0 30 14 55 31 40 27 44 33 33 47 -10 12 -10 14 0 8 9 -6 12 45
12 238 0 135 -1 246 -2 245 -2 -1 -109 -56 -239 -123z"/>
</g>
</svg>
